<svg width="196" height="50" viewBox="0 0 196 50" fill="none" xmlns="http://www.w3.org/2000/svg">
<g clip-path="url(#clip0_614_25)">
<rect width="196" height="50" rx="5" fill="url(#paint0_linear_614_25)"/>
<path d="M123.485 51.3L143.035 31.75L157.18 45.89L180.035 23.04L189 32V6.99998H164L172.965 15.965L157.18 31.75L143.04 17.605L118.31 42.335C115.46 35.935 113.991 29.0059 114 22C114 -5.61501 136.385 -28 164 -28C191.615 -28 214 -5.61501 214 22C214 49.615 191.615 71.9999 164 71.9999C156.09 72.0051 148.292 70.1311 141.248 66.5322C134.204 62.9334 128.116 57.7126 123.485 51.3V51.3Z" fill="url(#paint1_linear_614_25)"/>
</g>
<defs>
<linearGradient id="paint0_linear_614_25" x1="196" y1="50" x2="172.617" y2="-41.8474" gradientUnits="userSpaceOnUse">
<stop stop-color="#060D0D"/>
<stop offset="1" stop-color="#060D0D" stop-opacity="0.5"/>
</linearGradient>
<linearGradient id="paint1_linear_614_25" x1="135.4" y1="-19.6" x2="198.2" y2="68.4" gradientUnits="userSpaceOnUse">
<stop stop-color="white"/>
<stop offset="1" stop-color="white" stop-opacity="0"/>
</linearGradient>
<clipPath id="clip0_614_25">
<rect width="196" height="50" fill="white"/>
</clipPath>
</defs>
</svg>
