<svg width="198" height="50" viewBox="0 0 198 50" fill="none" xmlns="http://www.w3.org/2000/svg">
<rect width="196" height="50" rx="5" fill="url(#paint0_linear_605_131)"/>
<path d="M165.388 35.3214L172.37 28.3393L177.421 33.3893L185.584 25.2286L188.786 28.4286V19.5H179.857L183.059 22.7018L177.421 28.3393L172.371 23.2875L163.539 32.1196C162.521 29.834 161.997 27.3593 162 24.8571C162 14.9946 169.995 7 179.857 7C189.72 7 197.714 14.9946 197.714 24.8571C197.714 34.7196 189.72 42.7143 179.857 42.7143C177.032 42.7161 174.247 42.0468 171.731 40.7615C169.216 39.4762 167.041 37.6117 165.388 35.3214Z" fill="url(#paint1_linear_605_131)"/>
<defs>
<linearGradient id="paint0_linear_605_131" x1="196" y1="50" x2="172.617" y2="-41.8474" gradientUnits="userSpaceOnUse">
<stop stop-color="#060D0D"/>
<stop offset="1" stop-color="#060D0D" stop-opacity="0"/>
</linearGradient>
<linearGradient id="paint1_linear_605_131" x1="169.643" y1="10" x2="192.071" y2="41.4286" gradientUnits="userSpaceOnUse">
<stop stop-color="white"/>
<stop offset="1" stop-color="white" stop-opacity="0"/>
</linearGradient>
</defs>
</svg>
