<svg width="196" height="50" viewBox="0 0 196 50" fill="none" xmlns="http://www.w3.org/2000/svg">
<rect width="196" height="50" rx="5" fill="url(#paint0_linear_608_141)"/>
<path d="M111.566 35.7821L120 44.2137L117.214 47L108.782 38.5664C105.645 41.0814 101.743 42.4493 97.7218 42.4435C87.9394 42.4435 80 34.5042 80 24.7218C80 14.9394 87.9394 7 97.7218 7C107.504 7 115.444 14.9394 115.444 24.7218C115.449 28.7426 114.081 32.6449 111.566 35.7821ZM108.865 20.7836C108.05 18.4795 106.541 16.4847 104.545 15.074C102.55 13.6634 100.166 12.9064 97.7218 12.9073C91.1943 12.9073 85.9073 18.1943 85.9073 24.7218H89.8454C89.8458 23.3565 90.201 22.0149 90.8761 20.8282C91.5513 19.6416 92.5231 18.6508 93.6965 17.9529C94.8699 17.2551 96.2045 16.8741 97.5695 16.8473C98.9344 16.8206 100.283 17.149 101.483 17.8004L99.6909 20.7836H108.865ZM109.536 24.7218H105.598C105.598 26.087 105.243 27.4287 104.567 28.6153C103.892 29.8019 102.92 30.7927 101.747 31.4906C100.574 32.1885 99.239 32.5695 97.8741 32.5962C96.5091 32.6229 95.1606 32.2945 93.9608 31.6431L95.7527 28.6599H86.5787C87.3933 30.9641 88.9025 32.9589 90.8982 34.3695C92.8938 35.7801 95.2779 36.5372 97.7218 36.5363C104.249 36.5363 109.536 31.2493 109.536 24.7218Z" fill="url(#paint1_linear_608_141)"/>
<defs>
<linearGradient id="paint0_linear_608_141" x1="196" y1="50" x2="172.617" y2="-41.8474" gradientUnits="userSpaceOnUse">
<stop stop-color="#060D0D"/>
<stop offset="1" stop-color="#060D0D" stop-opacity="0"/>
</linearGradient>
<linearGradient id="paint1_linear_608_141" x1="82" y1="7" x2="124" y2="59.5" gradientUnits="userSpaceOnUse">
<stop stop-color="white"/>
<stop offset="1" stop-color="white" stop-opacity="0"/>
</linearGradient>
</defs>
</svg>
